<svg xmlns="http://www.w3.org/2000/svg" xmlns:xlink="http://www.w3.org/1999/xlink" width="512" height="512" viewBox="0 0 512 512"><defs><filter id="a"><feOffset dx="1" dy="1" input="SourceAlpha"/><feGaussianBlur stdDeviation="2.5" result="b"/><feFlood flood-color="#44e3fd" result="c"/><feComposite operator="out" in="SourceGraphic" in2="b"/><feComposite operator="in" in="c"/><feComposite operator="in" in2="SourceGraphic"/></filter><clipPath id="e"><rect width="512" height="512"/></clipPath></defs><g id="d" clip-path="url(#e)"><g transform="translate(-749.485 -495.746)"><g data-type="innerShadowGroup"><path d="M322.361,6H38.485A35.437,35.437,0,0,0,3.177,41.485L3,254.392a35.589,35.589,0,0,0,35.485,35.485H322.361a35.589,35.589,0,0,0,35.485-35.485V41.485A35.589,35.589,0,0,0,322.361,6Zm0,70.969L180.423,165.68,38.485,76.969V41.485L180.423,130.2,322.361,41.485Z" transform="translate(807 586)" fill="#3da0e3"/><g transform="matrix(1, 0, 0, 1, 749.49, 495.75)" filter="url(#a)"><path d="M322.361,6H38.485A35.437,35.437,0,0,0,3.177,41.485L3,254.392a35.589,35.589,0,0,0,35.485,35.485H322.361a35.589,35.589,0,0,0,35.485-35.485V41.485A35.589,35.589,0,0,0,322.361,6Zm0,70.969L180.423,165.68,38.485,76.969V41.485L180.423,130.2,322.361,41.485Z" transform="translate(57.52 90.25)" fill="#fff"/></g></g><g transform="translate(842.485 621.485)" fill="rgba(125,204,255,0.2)"><path d="M 322.3608093261719 289.6262512207031 L 38.48453140258789 289.6262512207031 C 33.74916839599609 289.6262512207031 29.14644050598145 288.6908874511719 24.8043041229248 286.8462219238281 C 20.61225891113281 285.0653076171875 16.84271430969238 282.5182495117188 13.60035037994385 279.2759094238281 C 10.35798645019531 276.0335693359375 7.810986518859863 272.2639770507812 6.030032157897949 268.0719299316406 C 4.18535041809082 263.7297973632812 3.24998664855957 259.1271362304688 3.24998664855957 254.3917236328125 L 3.427441120147705 41.48476028442383 C 3.427441120147705 22.05612564086914 19.15398597717285 6.249989032745361 38.48453140258789 6.249989032745361 L 322.3608093261719 6.249989032745361 C 327.0961608886719 6.249989032745361 331.6988830566406 7.185352802276611 336.0410461425781 9.030035018920898 C 340.2330627441406 10.81098937988281 344.0026245117188 13.35798931121826 347.2449951171875 16.6003532409668 C 350.4873352050781 19.84271621704102 353.0343627929688 23.61226272583008 354.8153076171875 27.80430793762207 C 356.6599731445312 32.14644241333008 357.5953369140625 36.74917221069336 357.5953369140625 41.48453521728516 L 357.5953369140625 254.3917236328125 C 357.5953369140625 259.1271362304688 356.6599731445312 263.7297973632812 354.8153076171875 268.0719299316406 C 353.0343627929688 272.2639770507812 350.4873352050781 276.0335693359375 347.2449951171875 279.2759094238281 C 344.0026245117188 282.5182495117188 340.2330627441406 285.0653076171875 336.0410461425781 286.8462219238281 C 331.6988830566406 288.6908874511719 327.0961608886719 289.6262512207031 322.3608093261719 289.6262512207031 Z M 38.23453140258789 41.03348922729492 L 38.23453140258789 41.48453521728516 L 38.23453140258789 76.96907806396484 L 38.23453140258789 77.10762786865234 L 38.35203170776367 77.18108367919922 L 180.2901611328125 165.8923950195312 L 180.4226684570312 165.9752197265625 L 180.55517578125 165.8923950195312 L 322.4933166503906 77.18108367919922 L 322.6108093261719 77.10762786865234 L 322.6108093261719 76.96907806396484 L 322.6108093261719 41.48453521728516 L 322.6108093261719 41.03348922729492 L 322.2283020019531 41.27253341674805 L 180.4226684570312 129.9010467529297 L 38.61703109741211 41.27253341674805 L 38.23453140258789 41.03348922729492 Z" stroke="none"/><path d="M 38.48452758789062 6.5 C 19.29183959960938 6.5 3.67742919921875 22.19400024414062 3.67742919921875 41.48493957519531 L 3.5 254.3917236328125 C 3.5 259.0933227539062 4.428619384765625 263.6631164550781 6.2601318359375 267.9741821289062 C 8.028472900390625 272.1365661621094 10.55752563476562 275.8795471191406 13.77713012695312 279.09912109375 C 16.9967041015625 282.3187255859375 20.73965454101562 284.8477478027344 24.90206909179688 286.6161193847656 C 29.213134765625 288.4476318359375 33.78292846679688 289.3762512207031 38.48452758789062 289.3762512207031 L 322.3608093261719 289.3762512207031 C 327.0624084472656 289.3762512207031 331.6322021484375 288.4476318359375 335.9432678222656 286.6161193847656 C 340.1056823730469 284.8477478027344 343.8486328125 282.3187255859375 347.0682067871094 279.09912109375 C 350.2878112792969 275.8795471191406 352.8168640136719 272.1365661621094 354.585205078125 267.9741821289062 C 356.4167175292969 263.6631164550781 357.3453369140625 259.0933227539062 357.3453369140625 254.3917236328125 L 357.3453369140625 41.48452758789062 C 357.3453369140625 36.782958984375 356.4167175292969 32.213134765625 354.585205078125 27.90206909179688 C 352.8168640136719 23.73968505859375 350.2878112792969 19.9967041015625 347.0682067871094 16.77713012695312 C 343.8486328125 13.55752563476562 340.1056823730469 11.02850341796875 335.9432678222656 9.2601318359375 C 331.6322021484375 7.428619384765625 327.0624084472656 6.5 322.3608093261719 6.5 L 38.48452758789062 6.5 M 180.4226684570312 129.6062316894531 L 322.8608093261719 40.5823974609375 L 322.8608093261719 77.24617004394531 L 322.6257934570312 77.39303588867188 L 180.4226684570312 166.2700347900391 L 180.1576690673828 166.1044006347656 L 37.98452758789062 77.24617004394531 L 37.98452758789062 40.5823974609375 L 180.4226684570312 129.6062316894531 M 38.48452758789062 6 L 322.3608093261719 6 C 341.8773193359375 6 357.8453369140625 21.96804809570312 357.8453369140625 41.48452758789062 L 357.8453369140625 254.3917236328125 C 357.8453369140625 273.908203125 341.8773193359375 289.8762512207031 322.3608093261719 289.8762512207031 L 38.48452758789062 289.8762512207031 C 18.968017578125 289.8762512207031 3 273.908203125 3 254.3917236328125 L 3.17742919921875 41.48452758789062 C 3.17742919921875 21.96804809570312 18.968017578125 6 38.48452758789062 6 Z M 180.4226684570312 130.1958465576172 L 38.48452758789062 41.48452758789062 L 38.48452758789062 76.96903991699219 L 180.4226684570312 165.6804046630859 L 322.3608093261719 76.96903991699219 L 322.3608093261719 41.48452758789062 L 180.4226684570312 130.1958465576172 Z" stroke="none" fill="#fff"/></g></g></g></svg>