<svg xmlns="http://www.w3.org/2000/svg" xmlns:xlink="http://www.w3.org/1999/xlink" width="512" height="512" viewBox="0 0 512 512"><defs><filter id="a"><feOffset dx="1" dy="1" input="SourceAlpha"/><feGaussianBlur stdDeviation="2.5" result="b"/><feFlood flood-color="#44e3fd" flood-opacity="0.749" result="c"/><feComposite operator="out" in="SourceGraphic" in2="b"/><feComposite operator="in" in="c"/><feComposite operator="in" in2="SourceGraphic"/></filter><clipPath id="e"><rect width="512" height="512"/></clipPath></defs><g id="d" clip-path="url(#e)"><g transform="translate(-791.997 -935.355)"><g data-type="innerShadowGroup"><path d="M323.148,23.66c-38.3-32.643-95.271-26.771-130.43,9.506l-13.77,14.189-13.77-14.189C130.089-3.111,73.051-8.983,34.747,23.66c-43.9,37.466-46.2,104.708-6.92,145.319L163.081,308.635a21.913,21.913,0,0,0,31.664,0L330,168.978c39.353-40.611,37.046-107.853-6.85-145.319Z" transform="translate(831.487 995.752)" fill="#3d49e3"/><g transform="matrix(1, 0, 0, 1, 792, 935.35)" filter="url(#a)"><path d="M323.148,23.66c-38.3-32.643-95.271-26.771-130.43,9.506l-13.77,14.189-13.77-14.189C130.089-3.111,73.051-8.983,34.747,23.66c-43.9,37.466-46.2,104.708-6.92,145.319L163.081,308.635a21.913,21.913,0,0,0,31.664,0L330,168.978c39.353-40.611,37.046-107.853-6.85-145.319Z" transform="translate(39.49 60.4)" fill="#fff"/></g></g><path d="M323.148,23.66c-38.3-32.643-95.271-26.771-130.43,9.506l-13.77,14.189-13.77-14.189C130.089-3.111,73.051-8.983,34.747,23.66c-43.9,37.466-46.2,104.708-6.92,145.319L163.081,308.635a21.913,21.913,0,0,0,31.664,0L330,168.978c39.353-40.611,37.046-107.853-6.85-145.319Z" transform="translate(906.046 1070.312)" fill="rgba(125,204,255,0.2)" stroke="#fff" stroke-width="0.5"/></g></g></svg>