<svg xmlns="http://www.w3.org/2000/svg" xmlns:xlink="http://www.w3.org/1999/xlink" width="512" height="512" viewBox="0 0 512 512"><defs><filter id="a"><feOffset dx="1" dy="1" input="SourceAlpha"/><feGaussianBlur stdDeviation="2.5" result="b"/><feFlood flood-color="#44e3fd" result="c"/><feComposite operator="out" in="SourceGraphic" in2="b"/><feComposite operator="in" in="c"/><feComposite operator="in" in2="SourceGraphic"/></filter><clipPath id="e"><rect width="512" height="512"/></clipPath></defs><g id="d" clip-path="url(#e)"><g transform="translate(-980.207 -514)"><g data-type="innerShadowGroup"><path d="M273.7,2.167,17.693,120.327C-11.844,134.113-2,177.437,29.509,177.437H137.823V285.751c0,31.507,43.323,41.359,57.11,11.816L313.094,41.555C322.939,17.917,297.337-7.685,273.7,2.167Z" transform="translate(1058.207 592)" fill="#3da0e3"/><g transform="matrix(1, 0, 0, 1, 980.21, 514)" filter="url(#a)"><path d="M273.7,2.167,17.693,120.327C-11.844,134.113-2,177.437,29.509,177.437H137.823V285.751c0,31.507,43.323,41.359,57.11,11.816L313.094,41.555C322.939,17.917,297.337-7.685,273.7,2.167Z" transform="translate(78 78)" fill="#fff"/></g></g><path d="M273.7,2.167,17.693,120.327C-11.844,134.114-2,177.437,29.509,177.437H137.824V285.752c0,31.507,43.323,41.359,57.11,11.816L313.094,41.555C322.94,17.917,297.337-7.685,273.7,2.167Z" transform="translate(1098.701 632.493)" fill="rgba(125,204,255,0.2)" stroke="#fff" stroke-width="0.5"/></g></g></svg>