<svg xmlns="http://www.w3.org/2000/svg" xmlns:xlink="http://www.w3.org/1999/xlink" width="512" height="512" viewBox="0 0 512 512"><defs><filter id="a"><feOffset dx="1" dy="1" input="SourceAlpha"/><feGaussianBlur stdDeviation="2.5" result="b"/><feFlood flood-color="#44e3fd" result="c"/><feComposite operator="out" in="SourceGraphic" in2="b"/><feComposite operator="in" in="c"/><feComposite operator="in" in2="SourceGraphic"/></filter><clipPath id="e"><rect width="512" height="512"/></clipPath></defs><g id="d" clip-path="url(#e)"><g transform="translate(-811.607 -538.263)"><g data-type="innerShadowGroup"><path d="M281.25,157.5H264.375V106.875a106.875,106.875,0,0,0-213.75,0V157.5H33.75A33.759,33.759,0,0,0,0,191.25v135A33.759,33.759,0,0,0,33.75,360h247.5A33.759,33.759,0,0,0,315,326.249v-135A33.759,33.759,0,0,0,281.25,157.5Zm-73.125,0H106.875V106.875a50.625,50.625,0,0,1,101.25,0Z" transform="translate(887.15 592)" fill="#3da0e3"/><g transform="matrix(1, 0, 0, 1, 811.61, 538.26)" filter="url(#a)"><path d="M281.25,157.5H264.375V106.875a106.875,106.875,0,0,0-213.75,0V157.5H33.75A33.759,33.759,0,0,0,0,191.25v135A33.759,33.759,0,0,0,33.75,360h247.5A33.759,33.759,0,0,0,315,326.249v-135A33.759,33.759,0,0,0,281.25,157.5Zm-73.125,0H106.875V106.875a50.625,50.625,0,0,1,101.25,0Z" transform="translate(75.54 53.74)" fill="#fff"/></g></g><path d="M281.25,157.5H264.375V106.875a106.875,106.875,0,0,0-213.75,0V157.5H33.75A33.759,33.759,0,0,0,0,191.25v135A33.759,33.759,0,0,0,33.75,360h247.5A33.759,33.759,0,0,0,315,326.249v-135A33.759,33.759,0,0,0,281.25,157.5Zm-73.125,0H106.875V106.875a50.625,50.625,0,0,1,101.25,0Z" transform="translate(932.151 637.001)" fill="rgba(125,204,255,0.2)" stroke="#fff" stroke-width="0.5"/></g></g></svg>