<svg xmlns="http://www.w3.org/2000/svg" xmlns:xlink="http://www.w3.org/1999/xlink" width="512" height="512" viewBox="0 0 512 512"><defs><filter id="a"><feOffset dx="1" dy="1" input="SourceAlpha"/><feGaussianBlur stdDeviation="2.5" result="b"/><feFlood flood-color="#44e3fd" result="c"/><feComposite operator="out" in="SourceGraphic" in2="b"/><feComposite operator="in" in="c"/><feComposite operator="in" in2="SourceGraphic"/></filter><clipPath id="e"><rect width="512" height="512"/></clipPath></defs><g id="d" clip-path="url(#e)"><g transform="translate(-871.085 -523.064)"><g data-type="innerShadowGroup"><path d="M327.469,264.9c-12.727-12.727-43.29-31.861-58.355-39.047-17.489-8.4-23.9-8.225-36.277.693-10.3,7.446-16.97,14.372-28.831,11.775-11.861-2.511-35.238-20.26-57.922-42.857-22.684-22.684-40.346-46.06-42.857-57.922-2.511-11.948,4.416-18.528,11.775-28.831,8.918-12.381,9.177-18.788.693-36.277-7.186-15.151-26.234-45.627-39.047-58.355C63.921,1.355,61.063,4.126,54.05,6.636a128.589,128.589,0,0,0-20.693,11C20.631,26.117,13.531,33.216,8.51,43.866,3.575,54.515-2.14,74.342,26.951,126.116c23.463,41.818,46.493,73.506,80.692,107.618h0l.087.087.087.087h0c34.2,34.2,65.8,57.229,107.618,80.692,51.775,29.091,71.6,23.377,82.251,18.441s17.749-12.035,26.234-24.848a128.592,128.592,0,0,0,11-20.693C337.425,280.487,340.282,277.63,327.469,264.9Z" transform="translate(935.517 587.498)" fill="#3da0e3"/><g transform="matrix(1, 0, 0, 1, 871.08, 523.06)" filter="url(#a)"><path d="M327.469,264.9c-12.727-12.727-43.29-31.861-58.355-39.047-17.489-8.4-23.9-8.225-36.277.693-10.3,7.446-16.97,14.372-28.831,11.775-11.861-2.511-35.238-20.26-57.922-42.857-22.684-22.684-40.346-46.06-42.857-57.922-2.511-11.948,4.416-18.528,11.775-28.831,8.918-12.381,9.177-18.788.693-36.277-7.186-15.151-26.234-45.627-39.047-58.355C63.921,1.355,61.063,4.126,54.05,6.636a128.589,128.589,0,0,0-20.693,11C20.631,26.117,13.531,33.216,8.51,43.866,3.575,54.515-2.14,74.342,26.951,126.116c23.463,41.818,46.493,73.506,80.692,107.618h0l.087.087.087.087h0c34.2,34.2,65.8,57.229,107.618,80.692,51.775,29.091,71.6,23.377,82.251,18.441s17.749-12.035,26.234-24.848a128.592,128.592,0,0,0,11-20.693C337.425,280.487,340.282,277.63,327.469,264.9Z" transform="translate(64.43 64.43)" fill="#fff"/></g></g><path d="M327.469,264.9c-12.727-12.727-43.29-31.861-58.355-39.047-17.489-8.4-23.9-8.225-36.277.693-10.3,7.446-16.97,14.372-28.831,11.775-11.861-2.511-35.238-20.26-57.922-42.857-22.684-22.684-40.346-46.06-42.857-57.922-2.511-11.948,4.416-18.528,11.775-28.831,8.918-12.381,9.177-18.788.693-36.277-7.186-15.151-26.234-45.627-39.047-58.355C63.921,1.355,61.063,4.126,54.05,6.636a128.589,128.589,0,0,0-20.693,11C20.631,26.117,13.531,33.216,8.51,43.866,3.575,54.515-2.14,74.342,26.951,126.116c23.463,41.818,46.493,73.506,80.692,107.618h0l.087.087.087.087h0c34.2,34.2,65.8,57.229,107.618,80.692,51.775,29.091,71.6,23.377,82.251,18.441s17.749-12.035,26.234-24.848a128.592,128.592,0,0,0,11-20.693C337.425,280.487,340.282,277.63,327.469,264.9Z" transform="translate(977.088 629.068)" fill="rgba(125,204,255,0.2)" stroke="#fff" stroke-width="0.5"/></g></g></svg>