<svg xmlns="http://www.w3.org/2000/svg" xmlns:xlink="http://www.w3.org/1999/xlink" width="512" height="512" viewBox="0 0 512 512"><defs><filter id="a"><feOffset dx="1" dy="1" input="SourceAlpha"/><feGaussianBlur stdDeviation="2.5" result="b"/><feFlood flood-color="#44e3fd" result="c"/><feComposite operator="out" in="SourceGraphic" in2="b"/><feComposite operator="in" in="c"/><feComposite operator="in" in2="SourceGraphic"/></filter><clipPath id="e"><rect width="512" height="512"/></clipPath></defs><g id="d" clip-path="url(#e)"><g transform="translate(85.157 85.157)"><g data-type="innerShadowGroup"><path d="M165.2,185.852A92.926,92.926,0,1,0,72.276,92.926,92.95,92.95,0,0,0,165.2,185.852Zm82.6,20.65H212.246a112.334,112.334,0,0,1-94.088,0H82.6A82.6,82.6,0,0,0,0,289.1v10.325A30.983,30.983,0,0,0,30.975,330.4H299.428A30.983,30.983,0,0,0,330.4,299.428V289.1A82.6,82.6,0,0,0,247.8,206.5Z" fill="#3da0e3"/><g transform="matrix(1, 0, 0, 1, -85.16, -85.16)" filter="url(#a)"><path d="M165.2,185.852A92.926,92.926,0,1,0,72.276,92.926,92.95,92.95,0,0,0,165.2,185.852Zm82.6,20.65H212.246a112.334,112.334,0,0,1-94.088,0H82.6A82.6,82.6,0,0,0,0,289.1v10.325A30.983,30.983,0,0,0,30.975,330.4H299.428A30.983,30.983,0,0,0,330.4,299.428V289.1A82.6,82.6,0,0,0,247.8,206.5Z" transform="translate(85.16 85.16)" fill="#fff"/></g></g><g transform="translate(11.162 11.162)" fill="rgba(125,204,255,0.2)" stroke-linecap="round"><path d="M165.2,185.852A92.926,92.926,0,1,0,72.276,92.926,92.95,92.95,0,0,0,165.2,185.852Zm82.6,20.65H212.246a112.334,112.334,0,0,1-94.088,0H82.6A82.6,82.6,0,0,0,0,289.1v10.325A30.983,30.983,0,0,0,30.975,330.4H299.428A30.983,30.983,0,0,0,330.4,299.428V289.1A82.6,82.6,0,0,0,247.8,206.5Z" stroke="none"/><path d="M 299.4282531738281 329.903564453125 C 303.5409545898438 329.903564453125 307.5310668945312 329.0976257324219 311.2877807617188 327.5080261230469 C 314.9164123535156 325.9726257324219 318.1757507324219 323.7746887207031 320.9751892089844 320.9751892089844 C 323.7746887207031 318.1757507324219 325.9726257324219 314.9164123535156 327.5080261230469 311.2877807617188 C 329.0976257324219 307.5310668945312 329.903564453125 303.5409545898438 329.903564453125 299.4282531738281 L 329.903564453125 289.1031188964844 C 329.903564453125 283.5317077636719 329.3424377441406 277.964111328125 328.2357788085938 272.5549621582031 C 327.1572265625 267.2834777832031 325.5479431152344 262.0984497070312 323.4525756835938 257.1438293457031 C 321.3951721191406 252.2789916992188 318.8485717773438 247.5869140625 315.8836059570312 243.1979064941406 C 312.9466857910156 238.8504943847656 309.5738220214844 234.7623596191406 305.8586120605469 231.0471954345703 C 302.1434020996094 227.3319854736328 298.0553283691406 223.9591217041016 293.7078552246094 221.0222015380859 C 289.3188781738281 218.0572052001953 284.6267700195312 215.5106506347656 279.7619934082031 213.4532470703125 C 274.8073120117188 211.3578643798828 269.6222839355469 209.7485809326172 264.350830078125 208.6700286865234 C 258.941650390625 207.5633697509766 253.3740692138672 207.0022430419922 247.8026580810547 207.0022430419922 L 212.3547973632812 207.0022430419922 C 197.4062194824219 213.8537902832031 181.5428466796875 217.3273162841797 165.2017822265625 217.3273162841797 C 148.9280395507812 217.3273162841797 133.0642395019531 213.8535308837891 118.0491790771484 207.0022430419922 L 82.60090637207031 207.0022430419922 C 77.02948760986328 207.0022430419922 71.46190643310547 207.5633697509766 66.05278015136719 208.6700286865234 C 60.78128051757812 209.7485809326172 55.59624099731445 211.3578643798828 50.64161682128906 213.4532470703125 C 45.77678298950195 215.5106506347656 41.08469772338867 218.0572052001953 36.69569778442383 221.0222015380859 C 32.34828186035156 223.9591217041016 28.26015663146973 227.3319854736328 24.54499053955078 231.0471954345703 C 20.82978248596191 234.7623596191406 17.45686531066895 238.8504943847656 14.51994895935059 243.1979064941406 C 11.55499076843262 247.5869140625 9.008407592773438 252.2789916992188 6.950990676879883 257.1438293457031 C 4.855615615844727 262.0984497070312 3.246323823928833 267.2834777832031 2.167782306671143 272.5549621582031 C 1.061115503311157 277.964111328125 0.4999905526638031 283.5317077636719 0.4999905526638031 289.1031188964844 L 0.4999905526638031 299.4282531738281 C 0.4999905526638031 303.5409545898438 1.305948853492737 307.5310668945312 2.895532131195068 311.2877807617188 C 4.430948734283447 314.9164123535156 6.628907203674316 318.1757507324219 9.428365707397461 320.9751892089844 C 12.22782421112061 323.7746887207031 15.48715686798096 325.9726257324219 19.11582374572754 327.5080261230469 C 22.87253189086914 329.0976257324219 26.86265754699707 329.903564453125 30.97536468505859 329.903564453125 L 299.4282531738281 329.903564453125 M 165.2017822265625 185.3519897460938 C 171.4706573486328 185.3519897460938 177.7360687255859 184.7199554443359 183.8239440917969 183.4734497070312 C 189.7566528320312 182.2587432861328 195.5927429199219 180.4462432861328 201.1700286865234 178.0862884521484 C 206.6460723876953 175.7692413330078 211.9281158447266 172.9014129638672 216.8694458007812 169.5624847412109 C 221.7638702392578 166.2552337646484 226.3666229248047 162.4572448730469 230.5498199462891 158.2740325927734 C 234.7330322265625 154.0908203125 238.5310363769531 149.4880676269531 241.8382873535156 144.5936584472656 C 245.1772003173828 139.6523284912109 248.0450286865234 134.3702850341797 250.3620758056641 128.8942413330078 C 252.7220306396484 123.3169479370117 254.5345306396484 117.4808654785156 255.7492370605469 111.5481567382812 C 256.9957275390625 105.4602813720703 257.6277770996094 99.19486236572266 257.6277770996094 92.92598724365234 C 257.6277770996094 86.65711212158203 256.9957275390625 80.39170074462891 255.7492370605469 74.30382537841797 C 254.5345306396484 68.37111663818359 252.7220306396484 62.53507232666016 250.3620758056641 56.95774078369141 C 248.0450286865234 51.48169708251953 245.1772003173828 46.19965744018555 241.8382873535156 41.25836563110352 C 238.5310363769531 36.36394882202148 234.7330322265625 31.76119804382324 230.5498199462891 27.57794952392578 C 226.3666229248047 23.39474105834961 221.7638702392578 19.59678268432617 216.8694458007812 16.28953170776367 C 211.9281158447266 12.95057392120361 206.6460723876953 10.08278179168701 201.1700286865234 7.765698909759521 C 195.5927429199219 5.405740737915039 189.7566528320312 3.59324049949646 183.8239440917969 2.37853217124939 C 177.7360687255859 1.13203227519989 171.4706573486328 0.4999905526638031 165.2017822265625 0.4999905526638031 C 158.9329071044922 0.4999905526638031 152.6674957275391 1.13203227519989 146.5796203613281 2.37853217124939 C 140.6469116210938 3.59324049949646 134.8108215332031 5.405740737915039 129.2335357666016 7.765698909759521 C 123.7574920654297 10.08278179168701 118.4754486083984 12.95057392120361 113.5341186523438 16.28953170776367 C 108.6397018432617 19.59678268432617 104.0369491577148 23.39474105834961 99.85373687744141 27.57794952392578 C 95.6705322265625 31.76119804382324 91.87253570556641 36.36394882202148 88.56528472900391 41.25836563110352 C 85.22636413574219 46.19965744018555 82.35853576660156 51.48169708251953 80.04148864746094 56.95774078369141 C 77.68153381347656 62.53507232666016 75.86903381347656 68.37111663818359 74.65432739257812 74.30382537841797 C 73.40782165527344 80.39170074462891 72.77577972412109 86.65711212158203 72.77577972412109 92.92598724365234 C 72.77577972412109 99.19486236572266 73.40782165527344 105.4602813720703 74.65432739257812 111.5481567382812 C 75.86903381347656 117.4808654785156 77.68153381347656 123.3169479370117 80.04148864746094 128.8942413330078 C 82.35853576660156 134.3702850341797 85.22636413574219 139.6523284912109 88.56528472900391 144.5936584472656 C 91.87253570556641 149.4880676269531 95.6705322265625 154.0908203125 99.85373687744141 158.2740325927734 C 104.0369491577148 162.4572448730469 108.6397018432617 166.2552337646484 113.5341186523438 169.5624847412109 C 118.4754486083984 172.9014129638672 123.7574920654297 175.7692413330078 129.2335357666016 178.0862884521484 C 134.8108215332031 180.4462432861328 140.6469116210938 182.2587432861328 146.5796203613281 183.4734497070312 C 152.6674957275391 184.7199554443359 158.9329071044922 185.3519897460938 165.2017822265625 185.3519897460938 M 299.4282531738281 330.403564453125 L 30.97536468505859 330.403564453125 C 13.87436580657959 330.403564453125 -9.440103895030916e-06 316.5292053222656 -9.440103895030916e-06 299.4282531738281 L -9.440103895030916e-06 289.1031188964844 C -9.440103895030916e-06 243.4789886474609 36.97682571411133 206.5022430419922 82.60090637207031 206.5022430419922 L 118.1579895019531 206.5022430419922 C 132.5486145019531 213.0844879150391 148.4234466552734 216.8273162841797 165.2017822265625 216.8273162841797 C 181.9800720214844 216.8273162841797 197.9194946289062 213.0844879150391 212.2455749511719 206.5022430419922 L 247.8026580810547 206.5022430419922 C 293.4267883300781 206.5022430419922 330.403564453125 243.4789886474609 330.403564453125 289.1031188964844 L 330.403564453125 299.4282531738281 C 330.403564453125 316.5292053222656 316.5292053222656 330.403564453125 299.4282531738281 330.403564453125 Z M 165.2017822265625 185.8519897460938 C 113.8988647460938 185.8519897460938 72.27577972412109 144.2289123535156 72.27577972412109 92.92598724365234 C 72.27577972412109 41.62311553955078 113.8988647460938 -9.440103895030916e-06 165.2017822265625 -9.440103895030916e-06 C 216.5046997070312 -9.440103895030916e-06 258.1277770996094 41.62311553955078 258.1277770996094 92.92598724365234 C 258.1277770996094 144.2289123535156 216.5046997070312 185.8519897460938 165.2017822265625 185.8519897460938 Z" stroke="none" fill="rgba(255,255,255,0.6)"/></g></g></g></svg>