<svg xmlns="http://www.w3.org/2000/svg" xmlns:xlink="http://www.w3.org/1999/xlink" width="1920" height="1080" viewBox="0 0 1920 1080"><defs><style>.a{clip-path:url(#g);}.b{fill:url(#b);}.c,.d{opacity:0.6;}.c{fill:url(#c);}.e{fill:#6944fd;}.f{fill:#3d49e3;}.g{fill:#44e3fd;}.h{fill:url(#a);}.i{filter:url(#d);mix-blend-mode:overlay;isolation:isolate;}</style><linearGradient id="a" x2="1" y2="1" gradientUnits="objectBoundingBox"><stop offset="0" stop-color="#44e3fd"/><stop offset="1" stop-color="#3d49e3"/></linearGradient><linearGradient id="b" x1="-0.035" y1="-0.011" x2="0.901" y2="1.053" gradientUnits="objectBoundingBox"><stop offset="0" stop-color="#fff"/><stop offset="0" stop-color="#44e3fd"/><stop offset="1" stop-color="#3d49e3"/></linearGradient><linearGradient id="c" x1="0.482" y1="1.063" x2="0.5" y2="-0.04" xlink:href="#a"/><filter id="d" x="167.938" y="-128.749" width="2330.122" height="2330.123" filterUnits="userSpaceOnUse"><feOffset dx="-3" dy="3" input="SourceAlpha"/><feGaussianBlur stdDeviation="17" result="e"/><feFlood flood-opacity="0.161"/><feComposite operator="in" in2="e"/><feComposite in="SourceGraphic"/></filter><clipPath id="g"><rect width="1920" height="1080"/></clipPath></defs><g id="f" class="a"><rect class="h" width="1920" height="1080"/><rect class="b" width="1920" height="1080"/><g class="i" transform="matrix(1, 0, 0, 1, 0, 0)"><circle class="c" cx="577" cy="577" r="577" transform="translate(1293.29 1848.2) rotate(-132)"/></g><g class="d" transform="translate(1101 52)"><rect class="e" width="600" height="600" rx="300" transform="translate(-300 780)"/><rect class="e" width="600" height="600" rx="300" transform="translate(-300 780)"/></g><g class="d" transform="translate(1474 -699)"><rect class="f" width="600" height="600" rx="300" transform="translate(-300 780)"/><rect class="f" width="600" height="600" rx="300" transform="translate(-300 780)"/></g><g class="d" transform="translate(571 -399.225)"><rect class="g" width="451" height="451" rx="225.5" transform="translate(-300 780.225)"/><rect class="g" width="451" height="451" rx="225.5" transform="translate(-300 780.225)"/></g><g class="d" transform="translate(842 -950.084)"><rect class="f" width="418" height="418" rx="209" transform="translate(-300 780.084)"/><rect class="f" width="418" height="418" rx="209" transform="translate(-300 780.084)"/></g></g></svg>
